<svg xmlns="http://www.w3.org/2000/svg" width="746.028" height="746.211" viewBox="0 0 746.028 746.211">
  <path id="Union_9" data-name="Union 9" d="M-2570.435,2405.072a138.378,138.378,0,0,1-37.34-117.222,138.03,138.03,0,0,1,40.734-78.734c2.934-2.835,5.976-5.507,9.095-8.035l.055-.055a155.36,155.36,0,0,0,14.029-9.969.321.321,0,0,0,.164-.107q5.761-4.592,11.169-9.823a155.236,155.236,0,0,0,46.5-93.632,155.275,155.275,0,0,0-94.4,44.869q-5.3,5.306-10.018,11a.348.348,0,0,0-.108.161,155.52,155.52,0,0,0-10.209,13.855l-.054.058q-3.879,4.611-8.194,8.954a138.034,138.034,0,0,1-79.434,39.357A138.4,138.4,0,0,1-2805,2166.39a138.593,138.593,0,0,1,0-195.988,138.293,138.293,0,0,1,107.963-40.23,138.091,138.091,0,0,1,88.033,40.23,139.679,139.679,0,0,1,12.768,14.675,151.789,151.789,0,0,0,11.457,17.992,156.26,156.26,0,0,0,15.246,17.69,155.193,155.193,0,0,0,82.553,43.2,155.164,155.164,0,0,0-42.27-86.607,155.6,155.6,0,0,0-17.425-15.547,151.493,151.493,0,0,0-17.792-11.773,139.159,139.159,0,0,1-14.449-13.018,138.079,138.079,0,0,1-38.706-88.713,138.259,138.259,0,0,1,42.1-107.242,138.6,138.6,0,0,1,195.962,3.393,138.368,138.368,0,0,1,37.338,117.219,138.026,138.026,0,0,1-40.731,78.735c-2.934,2.835-5.976,5.507-9.1,8.036l-.053.053a155.473,155.473,0,0,0-14.029,9.969.328.328,0,0,0-.166.108c-3.84,3.061-7.573,6.347-11.169,9.823a155.268,155.268,0,0,0-46.948,97.856,155.318,155.318,0,0,0,98.693-45.244q5.307-5.307,10.02-11a.377.377,0,0,0,.107-.161A155.237,155.237,0,0,0-2345.392,1996l.055-.058q3.878-4.61,8.192-8.955a138.039,138.039,0,0,1,79.434-39.356,138.4,138.4,0,0,1,116.562,39.356,138.593,138.593,0,0,1,0,195.987,138.291,138.291,0,0,1-107.964,40.232,138.084,138.084,0,0,1-88.032-40.232,139.376,139.376,0,0,1-12.766-14.673,151.9,151.9,0,0,0-11.458-17.992,155.906,155.906,0,0,0-15.247-17.689,155.2,155.2,0,0,0-85.905-43.768,155.17,155.17,0,0,0,41.773,83.322,155.849,155.849,0,0,0,17.427,15.547,151.24,151.24,0,0,0,17.79,11.772,139.444,139.444,0,0,1,14.452,13.018,138.094,138.094,0,0,1,38.705,88.713,138.262,138.262,0,0,1-42.1,107.241,138.136,138.136,0,0,1-96.271,38.906A138.165,138.165,0,0,1-2570.435,2405.072Z" transform="translate(2846.09 -1701.657)" stroke="rgba(0,0,0,0)" stroke-width="1" opacity="0.1"/>
</svg>
