<svg xmlns="http://www.w3.org/2000/svg" width="444.598" height="444.708" viewBox="0 0 444.598 444.708">
  <path id="Union_1" data-name="Union 1" d="M-2681.76,2120.68a82.393,82.393,0,0,1-22.233-69.795,82.184,82.184,0,0,1,24.253-46.879c1.747-1.688,3.558-3.279,5.415-4.784l.033-.033a92.482,92.482,0,0,0,8.353-5.936.189.189,0,0,0,.1-.064q3.43-2.734,6.65-5.848a92.431,92.431,0,0,0,27.689-55.749,92.452,92.452,0,0,0-56.207,26.715q-3.159,3.16-5.965,6.549a.2.2,0,0,0-.064.1,92.494,92.494,0,0,0-6.079,8.249l-.032.035q-2.31,2.745-4.879,5.331a82.186,82.186,0,0,1-47.3,23.434,82.4,82.4,0,0,1-69.4-23.434,82.52,82.52,0,0,1,0-116.693,82.342,82.342,0,0,1,64.282-23.953,82.222,82.222,0,0,1,52.416,23.953,83.187,83.187,0,0,1,7.6,8.737,90.382,90.382,0,0,0,6.822,10.713,93.058,93.058,0,0,0,9.078,10.533,92.406,92.406,0,0,0,49.153,25.723,92.387,92.387,0,0,0-25.168-51.567,92.626,92.626,0,0,0-10.375-9.257,90.2,90.2,0,0,0-10.594-7.01,82.832,82.832,0,0,1-8.6-7.751,82.213,82.213,0,0,1-23.046-52.82,82.322,82.322,0,0,1,25.066-63.853,82.523,82.523,0,0,1,116.678,2.02,82.386,82.386,0,0,1,22.231,69.794,82.183,82.183,0,0,1-24.252,46.88q-2.621,2.532-5.416,4.785l-.032.032a92.587,92.587,0,0,0-8.353,5.936.2.2,0,0,0-.1.064c-2.286,1.822-4.509,3.779-6.65,5.848a92.446,92.446,0,0,0-27.953,58.265,92.48,92.48,0,0,0,58.763-26.939q3.16-3.16,5.966-6.549a.222.222,0,0,0,.064-.1,92.436,92.436,0,0,0,6.078-8.249l.033-.035q2.309-2.745,4.878-5.332a82.19,82.19,0,0,1,47.3-23.433,82.4,82.4,0,0,1,69.4,23.433,82.52,82.52,0,0,1,0,116.693,82.339,82.339,0,0,1-64.283,23.955,82.218,82.218,0,0,1-52.415-23.955,83.009,83.009,0,0,1-7.6-8.736,90.44,90.44,0,0,0-6.823-10.713,92.856,92.856,0,0,0-9.078-10.533,92.408,92.408,0,0,0-51.149-26.06,92.389,92.389,0,0,0,24.872,49.611,92.789,92.789,0,0,0,10.376,9.257,90.045,90.045,0,0,0,10.592,7.01,82.974,82.974,0,0,1,8.6,7.751,82.221,82.221,0,0,1,23.046,52.82,82.324,82.324,0,0,1-25.066,63.853,82.247,82.247,0,0,1-57.321,23.165A82.265,82.265,0,0,1-2681.76,2120.68Z" transform="translate(2846.09 -1701.656)" fill="none" stroke="#fff" stroke-width="1"/>
</svg>
