<svg xmlns="http://www.w3.org/2000/svg" width="750.598" height="750.707" viewBox="0 0 750.598 750.707">
  <path id="Union_12" data-name="Union 12" d="M-2568.748,2409.312a139.206,139.206,0,0,1-37.569-117.929,138.856,138.856,0,0,1,40.984-79.209c2.952-2.852,6.013-5.541,9.151-8.083l.055-.056a156.2,156.2,0,0,0,14.115-10.029.318.318,0,0,0,.165-.108q5.8-4.619,11.238-9.881a156.172,156.172,0,0,0,46.79-94.2,156.233,156.233,0,0,0-94.98,45.139q-5.337,5.339-10.079,11.066a.343.343,0,0,0-.108.162,156.257,156.257,0,0,0-10.272,13.938l-.054.059q-3.9,4.638-8.244,9.008a138.883,138.883,0,0,1-79.921,39.6,139.255,139.255,0,0,1-117.276-39.6,139.42,139.42,0,0,1,0-197.17,139.151,139.151,0,0,1,108.625-40.473,138.947,138.947,0,0,1,88.573,40.473,140.56,140.56,0,0,1,12.846,14.763,152.706,152.706,0,0,0,11.527,18.1,157.245,157.245,0,0,0,15.339,17.8,156.155,156.155,0,0,0,83.06,43.463,156.094,156.094,0,0,0-42.53-87.13,156.493,156.493,0,0,0-17.532-15.641,152.433,152.433,0,0,0-17.9-11.844,139.994,139.994,0,0,1-14.538-13.1,138.9,138.9,0,0,1-38.943-89.248,139.087,139.087,0,0,1,42.357-107.889,139.458,139.458,0,0,1,197.164,3.414,139.193,139.193,0,0,1,37.567,117.927,138.856,138.856,0,0,1-40.981,79.21q-4.428,4.278-9.152,8.085l-.054.053a156.48,156.48,0,0,0-14.115,10.03.332.332,0,0,0-.167.109c-3.863,3.079-7.619,6.385-11.238,9.882a156.2,156.2,0,0,0-47.236,98.447,156.282,156.282,0,0,0,99.3-45.517q5.339-5.339,10.081-11.065a.372.372,0,0,0,.108-.162,156.115,156.115,0,0,0,10.271-13.938l.055-.059q3.9-4.638,8.243-9.009a138.887,138.887,0,0,1,79.921-39.593,139.255,139.255,0,0,1,117.277,39.593,139.418,139.418,0,0,1,0,197.169,139.145,139.145,0,0,1-108.626,40.475,138.939,138.939,0,0,1-88.572-40.475,140.21,140.21,0,0,1-12.845-14.761,152.751,152.751,0,0,0-11.529-18.1,156.819,156.819,0,0,0-15.34-17.8,156.159,156.159,0,0,0-86.432-44.032,156.1,156.1,0,0,0,42.03,83.825,156.772,156.772,0,0,0,17.534,15.641,152.187,152.187,0,0,0,17.9,11.844,140.167,140.167,0,0,1,14.54,13.1,138.917,138.917,0,0,1,38.943,89.248,139.091,139.091,0,0,1-42.357,107.888,138.991,138.991,0,0,1-96.862,39.14A139.018,139.018,0,0,1-2568.748,2409.312Z" transform="translate(2846.09 -1701.657)" fill="none" stroke="#fff" stroke-width="1"/>
</svg>
