<svg xmlns="http://www.w3.org/2000/svg" width="3886.515" height="3573.388" viewBox="0 0 3886.515 3573.388">
  <g id="Group_8582" data-name="Group 8582" transform="translate(1333.853 2100.031)">
    <path id="Path_14098" data-name="Path 14098" d="M2453.333,27.58,1141.057,686.236,306.686,1571.629c-68.857,42.488-94.433,124.6-62.12,194.393l.836,1.547c.854,2.373,2.254,4.739,3.4,7.113L527.072,3088.757a13.116,13.116,0,0,0,1.69,2.646c1.947,3.409,3.9,6.811,6.19,10.245v.239c48.317,73.191,430.076,190.021,504.574,155.373a52.839,52.839,0,0,0,7.283-3.679,161.271,161.271,0,0,0,68.045-67.155L2699.828,230.874C2778.005,85.277,2598.66-62.684,2453.333,27.58Z" transform="translate(-584.448 1695.123) rotate(-106)" fill="#ffe115"/>
    <path id="Path_14097" data-name="Path 14097" d="M2453.333,27.58,1141.057,686.236l-940.11,855.073c-68.857,42.488-94.433,124.6-62.12,194.393l.836,1.547c.854,2.373,2.254,4.739,3.4,7.113L527.072,3088.757a13.116,13.116,0,0,0,1.69,2.646c1.947,3.409,3.9,6.811,6.19,10.245v.239c48.317,73.191,430.076,190.021,504.574,155.373a52.839,52.839,0,0,0,7.283-3.679,161.271,161.271,0,0,0,68.045-67.155L2699.828,230.874C2778.005,85.277,2598.66-62.684,2453.333,27.58Z" transform="translate(-584.448 1567) rotate(-106)" fill="#ff579b"/>
    <path id="Path_24" data-name="Path 24" d="M2453.333,27.58,1141.057,686.236,75.983,1505.476c-68.857,42.488-94.433,124.6-62.12,194.393l.836,1.547c.854,2.373,2.254,4.739,3.4,7.113L527.072,3088.757a13.116,13.116,0,0,0,1.69,2.646c1.947,3.409,3.9,6.811,6.19,10.245v.239c48.317,73.191,430.076,190.021,504.574,155.373a52.839,52.839,0,0,0,7.283-3.679,161.271,161.271,0,0,0,68.045-67.155L2699.828,230.874C2778.005,85.277,2598.66-62.684,2453.333,27.58Z" transform="translate(-584.448 1413.006) rotate(-106)" fill="#4b2deb"/>
  </g>
</svg>
