<svg id="Component_51_1" data-name="Component 51 – 1" xmlns="http://www.w3.org/2000/svg" xmlns:xlink="http://www.w3.org/1999/xlink" width="529.186" height="529.346" viewBox="0 0 529.186 529.346">
  <defs>
    <clipPath id="clip-path">
      <path id="Path_5703" data-name="Path 5703" d="M500.373,341.532a98.487,98.487,0,0,1-139.239,0,100.212,100.212,0,0,1-9.053-10.405,110.449,110.449,0,0,0-8.142-12.786,114.848,114.848,0,0,0-10.817-12.581A110.281,110.281,0,0,0,272.1,274.69a110.06,110.06,0,0,0,29.658,59.17,112.068,112.068,0,0,0,12.375,11.052,106.675,106.675,0,0,0,12.639,8.348,98.459,98.459,0,1,1-128.922,6.849c2.087-2.028,4.233-3.909,6.467-5.7,0-.029,0-.029.029-.059a105.4,105.4,0,0,0,9.965-7.055.4.4,0,0,0,.118-.088q4.1-3.263,7.936-6.966a110.456,110.456,0,0,0,33.009-66.519,110.34,110.34,0,0,0-67.018,31.863c-2.528,2.528-4.909,5.144-7.113,7.819-.059.029-.059.059-.088.118a116.164,116.164,0,0,0-7.26,9.847l-.029.029c-1.852,2.175-3.762,4.321-5.82,6.349a98.431,98.431,0,1,1,0-139.21A100.029,100.029,0,0,1,177.1,200.97a110.445,110.445,0,0,0,8.142,12.786,111.726,111.726,0,0,0,10.846,12.551A109.712,109.712,0,0,0,254.7,256.966a110.3,110.3,0,0,0-30.011-61.492,109.187,109.187,0,0,0-12.375-11.023,104.574,104.574,0,0,0-12.639-8.377,100.637,100.637,0,0,1-10.258-9.23,98.474,98.474,0,1,1,139.18,2.41c-2.058,2-4.233,3.909-6.437,5.7-.029,0-.029,0-.059.029a113.954,113.954,0,0,0-9.965,7.084.308.308,0,0,0-.118.088c-2.7,2.175-5.379,4.5-7.936,6.966a110.325,110.325,0,0,0-33.3,69.487.108.108,0,0,1-.088.029v.029a.108.108,0,0,0,.088.029.055.055,0,0,1,0-.088,110.338,110.338,0,0,0,70.075-32.128c2.5-2.5,4.879-5.115,7.113-7.789.029-.059.059-.059.059-.118a110.145,110.145,0,0,0,7.26-9.847l.029-.029c1.852-2.2,3.792-4.321,5.82-6.378a98.447,98.447,0,0,1,139.239,139.21" transform="translate(0.001 0.001)" fill="#fff"/>
    </clipPath>
    <clipPath id="clip-path-2">
      <rect id="Rectangle_3076" data-name="Rectangle 3076" width="88.083" height="83.297"/>
    </clipPath>
  </defs>
  <g id="Mask_Group_29" data-name="Mask Group 29" transform="translate(-0.001 -0.001)" clip-path="url(#clip-path)">
    <rect id="Rectangle_3144" data-name="Rectangle 3144" width="856.424" height="856.426" transform="translate(-168.473 -181.751)" fill="#001839"/>
    <ellipse id="Ellipse_27" data-name="Ellipse 27" cx="337.232" cy="337.233" rx="337.232" ry="337.233" transform="translate(88.698 -121.755)" fill="#1dffa8"/>
    <ellipse id="Ellipse_28" data-name="Ellipse 28" cx="306.906" cy="306.906" rx="306.906" ry="306.906" transform="translate(-129.655 172.465)" fill="#004cdb"/>
    <ellipse id="Ellipse_29" data-name="Ellipse 29" cx="265.661" cy="265.662" rx="265.661" ry="265.662" transform="translate(-214.753 51.158)" fill="#1de5ff"/>
    <ellipse id="Ellipse_30" data-name="Ellipse 30" cx="206.221" cy="206.222" rx="206.221" ry="206.222" transform="translate(116.745 -121.755)" fill="#defd59"/>
  </g>
  <g id="Icon_3" data-name="Icon 3" transform="translate(387.884 226.706)">
    <path id="Path_58" data-name="Path 58" d="M90.406,46.7A43.7,43.7,0,1,1,46.7,3a43.7,43.7,0,0,1,43.7,43.7Z" transform="translate(-2.999 -3.001)" fill="none" stroke="#000" stroke-linecap="round" stroke-linejoin="round" stroke-width="6"/>
    <path id="Path_59" data-name="Path 59" d="M61.444,35.222A26.222,26.222,0,1,1,35.222,9,26.222,26.222,0,0,1,61.444,35.222Z" transform="translate(8.482 8.48)" fill="none" stroke="#000" stroke-linecap="round" stroke-linejoin="round" stroke-width="6"/>
    <path id="Path_60" data-name="Path 60" d="M32.481,23.741A8.741,8.741,0,1,1,23.741,15,8.741,8.741,0,0,1,32.481,23.741Z" transform="translate(19.964 19.961)" fill="none" stroke="#000" stroke-linecap="round" stroke-linejoin="round" stroke-width="6"/>
  </g>
  <g id="Icon_2" data-name="Icon 2" transform="translate(54.841 214.595)">
    <path id="Path_5547" data-name="Path 5547" d="M111.126,63.8a8.42,8.42,0,0,0-5.39-5.78V35.565A8.417,8.417,0,1,0,97.471,21.25L78.026,10.024a8.418,8.418,0,1,0-16.529,0L42.052,21.25a8.506,8.506,0,0,0-1.315-.935,8.418,8.418,0,1,0-6.951,15.249V58.021a8.417,8.417,0,1,0,8.266,14.314L61.5,83.562a8.418,8.418,0,1,0,16.529,0L97.471,72.335a8.507,8.507,0,0,0,1.315.935,8.418,8.418,0,0,0,12.34-9.469ZM95.7,61.771a8.356,8.356,0,0,0-.974,5.814L75.28,78.816a8.4,8.4,0,0,0-11.037,0L44.792,67.586a8.356,8.356,0,0,0-.974-5.814,8.44,8.44,0,0,0-4.548-3.747V35.562a8.441,8.441,0,0,0,4.548-3.747A8.356,8.356,0,0,0,44.792,26L64.243,14.77a8.4,8.4,0,0,0,11.037,0L94.731,26a8.356,8.356,0,0,0,.974,5.814,8.44,8.44,0,0,0,4.548,3.747V58.024A8.441,8.441,0,0,0,95.7,61.771Zm4.456-34.925a2.937,2.937,0,0,1,2.829-2.176,2.948,2.948,0,0,1,2.547,1.468,2.936,2.936,0,0,1-2.536,4.4,2.948,2.948,0,0,1-2.547-1.468A2.916,2.916,0,0,1,100.16,26.846ZM69.761,5.484a2.935,2.935,0,1,1-2.935,2.935,2.938,2.938,0,0,1,2.935-2.935ZM33.986,26.138a2.948,2.948,0,0,1,2.547-1.468,2.935,2.935,0,0,1,2.536,4.4,2.948,2.948,0,0,1-2.547,1.468,2.935,2.935,0,0,1-2.536-4.4Zm5.376,40.6a2.937,2.937,0,0,1-2.829,2.176,2.948,2.948,0,0,1-2.547-1.468,2.936,2.936,0,0,1,2.536-4.4,2.948,2.948,0,0,1,2.547,1.468A2.916,2.916,0,0,1,39.363,66.74ZM69.761,88.1A2.935,2.935,0,1,1,72.7,85.167,2.938,2.938,0,0,1,69.761,88.1Zm35.775-20.655a2.948,2.948,0,0,1-2.547,1.468,2.935,2.935,0,0,1-2.536-4.4A2.948,2.948,0,0,1,103,63.045a2.935,2.935,0,0,1,2.536,4.4Z" transform="translate(-28.106 0.001)"/>
    <path id="Path_5548" data-name="Path 5548" d="M142.121,134.985V159.7l20.815,11.946L183.751,159.7V134.985l-20.815-11.946Zm33.38,1.588-12.565,7.211-12.565-7.211,12.565-7.211Zm-27.9,4.734,12.59,7.225v15.217l-12.59-7.225Zm18.073,22.443V148.532l12.59-7.225v15.217Z" transform="translate(-121.281 -100.548)"/>
  </g>
  <path id="Icon_4" data-name="Icon 4" d="M45.7,4A20.488,20.488,0,1,0,66.186,24.488,20.54,20.54,0,0,0,45.7,4Zm0,6.829A13.658,13.658,0,1,1,32.04,24.488,13.607,13.607,0,0,1,45.7,10.829Zm-21.626,38.7A10.3,10.3,0,0,0,13.829,59.772v6.945A8.009,8.009,0,0,0,7,74.569v4.553A8,8,0,0,0,14.078,87a10.3,10.3,0,0,0,9.995,8.061H67.325A10.3,10.3,0,0,0,77.319,87,8,8,0,0,0,84.4,79.121V74.569a8.009,8.009,0,0,0-6.829-7.852V59.772A10.3,10.3,0,0,0,67.325,49.528Zm0,6.829H67.325a3.363,3.363,0,0,1,3.415,3.415V67.41a8,8,0,0,0-4.553,7.158v4.553a7.988,7.988,0,0,0,4.295,7.016,3.353,3.353,0,0,1-3.157,2.09H24.073a3.353,3.353,0,0,1-3.157-2.09,7.988,7.988,0,0,0,4.295-7.016V74.569a8,8,0,0,0-4.553-7.158V59.772A3.363,3.363,0,0,1,24.073,56.357Zm38.7,4.553a3.415,3.415,0,1,0,3.415,3.415A3.415,3.415,0,0,0,62.772,60.91Zm-47.8,12.52h2.276a1.087,1.087,0,0,1,1.138,1.138v4.553a1.087,1.087,0,0,1-1.138,1.138H14.967a1.087,1.087,0,0,1-1.138-1.138V74.569A1.087,1.087,0,0,1,14.967,73.43Zm59.733,0h1.73a1.087,1.087,0,0,1,1.138,1.138v4.553A1.087,1.087,0,0,1,76.43,80.26H74.154a1.087,1.087,0,0,1-1.138-1.138V74.569a1.064,1.064,0,0,1,.925-1.1A3.415,3.415,0,0,0,74.7,73.43Z" transform="translate(218.895 379.095)"/>
  <g id="Icon_1" data-name="Icon 1" transform="translate(220.04 62.224)">
    <g id="Group_8127" data-name="Group 8127" transform="translate(-0.001 0.001)" clip-path="url(#clip-path-2)">
      <path id="Path_5625" data-name="Path 5625" d="M87.951,25.771a2.456,2.456,0,0,0,.108-.475c.007-.053.015-.1.018-.158a2.447,2.447,0,0,0-.03-.6c0-.011-.007-.021-.009-.032a2.454,2.454,0,0,0-.184-.544c-.012-.026-.014-.054-.027-.079s-.041-.053-.057-.082c-.029-.053-.049-.108-.083-.159L72.96,1.116A2.464,2.464,0,0,0,70.9,0H17.186a2.465,2.465,0,0,0-2.063,1.116L.4,23.64c-.033.051-.053.107-.083.159-.016.03-.042.052-.057.082s-.015.053-.027.079a2.431,2.431,0,0,0-.185.544c0,.011-.007.021-.009.032a2.472,2.472,0,0,0-.03.6c0,.054.011.105.017.158a2.421,2.421,0,0,0,.108.475c.014.041.022.081.038.121a2.44,2.44,0,0,0,.29.531c.009.012.013.027.021.039L42.065,82.3c0,.005.01.009.014.015.016.022.037.038.054.06.034.042.074.075.11.114a2.451,2.451,0,0,0,.326.3c.054.041.108.075.166.111.042.027.08.056.125.08a2.392,2.392,0,0,0,.321.139c.064.025.126.051.192.07s.132.034.2.047c.02,0,.036.017.056.02a2.456,2.456,0,0,0,.4.034l.014,0,.015,0a2.448,2.448,0,0,0,.662-.1c.036-.01.072-.016.107-.028.012,0,.023,0,.035-.006.06-.021.111-.054.168-.079s.126-.054.187-.088.13-.075.193-.117c.039-.026.074-.054.11-.082h0c.044-.033.09-.062.132-.1a2.463,2.463,0,0,0,.318-.334c.012-.015.026-.026.037-.041a.139.139,0,0,1,.011-.013h0l0,0L87.6,26.462c.009-.013.013-.027.021-.039a2.442,2.442,0,0,0,.291-.531c.016-.04.024-.08.038-.121M81.07,22.528l-15.62.014L59.589,4.93h9.974ZM41.576,4.93V22.557l-13.748-.012L33.691,4.93Zm0,22.557V66.4l-13.7-38.921Zm4.93,0,13.7-.012L46.507,66.4Zm0-4.93V4.93h7.886l5.863,17.615ZM18.52,4.93h9.974L22.633,22.541,7.014,22.528Zm4.133,22.541,13.68,38.879L7.372,27.458Zm29.1,38.879,13.68-38.879,15.281-.013Z" transform="translate(0)"/>
    </g>
  </g>
</svg>
