<svg id="Icon_Box_2" data-name="Icon Box 2" xmlns="http://www.w3.org/2000/svg" xmlns:xlink="http://www.w3.org/1999/xlink" width="551.116" height="549.828" viewBox="0 0 551.116 549.828">
  <defs>
    <clipPath id="clip-path">
      <rect id="Rectangle_361" data-name="Rectangle 361" width="549.828" height="551.116" rx="20" transform="translate(0 0)" fill="#0a0c6e"/>
    </clipPath>
  </defs>
  <g id="Mask_Group_29" data-name="Mask Group 29" transform="translate(551.116) rotate(90)" clip-path="url(#clip-path)">
    <rect id="Rectangle_362" data-name="Rectangle 362" width="549.828" height="551.116" transform="translate(0 0)" fill="#ff579b"/>
    <path id="Path_21" data-name="Path 21" d="M84.494,84.494,549.665,0,465.171,465.171,0,549.665Z" transform="translate(261.395 -443.167) rotate(45)" fill="#ffe115" stroke="#000" stroke-width="3"/>
    <path id="Path_22" data-name="Path 22" d="M84.494,84.494,549.665,0,465.171,465.171,0,549.665Z" transform="translate(261.395 212.972) rotate(45)" fill="#c9f547" stroke="#000" stroke-width="3"/>
  </g>
  <g id="Group_8307" data-name="Group 8307" transform="translate(153.983 54.113)">
    <g id="Path_25" data-name="Path 25" transform="translate(124.32 93.516) rotate(45)" fill="#0a0c6e">
      <path d="M 1.790928244590759 174.0242004394531 L 24.61125564575195 24.61125564575195 L 174.0242004394531 1.790928244590759 L 151.203857421875 151.203857421875 L 1.790928244590759 174.0242004394531 Z" stroke="none"/>
      <path d="M 172.2332611083984 3.58184814453125 L 25.92758178710938 25.92758178710938 L 3.58184814453125 172.2332611083984 L 149.8874969482422 149.8874969482422 L 172.2332611083984 3.58184814453125 M 175.8151092529297 0 L 152.5201721191406 152.5201721191406 L 0 175.8151092529297 L 23.29490661621094 23.29490661621094 L 175.8151092529297 0 Z" stroke="none" fill="#000"/>
    </g>
    <path id="Path_27" data-name="Path 27" d="M27.266,17.536,133.53,0,115.275,114.758,0,129.793Z" transform="translate(123.954 100.487) rotate(45)" opacity="0.5" style="mix-blend-mode: overlay;isolation: isolate"/>
    <g id="Path_24" data-name="Path 24" transform="translate(124.32 93.516) rotate(45)" fill="#4bbdf5">
      <path d="M 1.790928244590759 174.0242004394531 L 24.61125564575195 24.61125564575195 L 174.0242004394531 1.790928244590759 L 151.203857421875 151.203857421875 L 1.790928244590759 174.0242004394531 Z" stroke="none"/>
      <path d="M 172.2332611083984 3.58184814453125 L 25.92758178710938 25.92758178710938 L 3.58184814453125 172.2332611083984 L 149.8874969482422 149.8874969482422 L 172.2332611083984 3.58184814453125 M 175.8151092529297 0 L 152.5201721191406 152.5201721191406 L 0 175.8151092529297 L 23.29490661621094 23.29490661621094 L 175.8151092529297 0 Z" stroke="none" fill="#000"/>
    </g>
    <path id="Path_23" data-name="Path 23" d="M18.4,13.9,110.659,0,97.046,97.015,0,110.659Z" transform="translate(123.766 105.018) rotate(45)" style="mix-blend-mode: overlay;isolation: isolate"/>
    <g id="Path_26" data-name="Path 26" transform="translate(124.32 93.516) rotate(45)" fill="#fff">
      <path d="M 1.790928244590759 174.0242004394531 L 24.61125564575195 24.61125564575195 L 174.0242004394531 1.790928244590759 L 151.203857421875 151.203857421875 L 1.790928244590759 174.0242004394531 Z" stroke="none"/>
      <path d="M 172.2332611083984 3.58184814453125 L 25.92758178710938 25.92758178710938 L 3.58184814453125 172.2332611083984 L 149.8874969482422 149.8874969482422 L 172.2332611083984 3.58184814453125 M 175.8151092529297 0 L 152.5201721191406 152.5201721191406 L 0 175.8151092529297 L 23.29490661621094 23.29490661621094 L 175.8151092529297 0 Z" stroke="none" fill="#000"/>
    </g>
  </g>
</svg>
