<svg id="More_Materials" data-name="More Materials" xmlns="http://www.w3.org/2000/svg" width="173.763" height="169.002" viewBox="0 0 173.763 169.002">
  <g id="Rectangle_2712" data-name="Rectangle 2712" transform="translate(0)" fill="#fff" stroke="#000" stroke-width="3">
    <rect width="173.763" height="169.002" rx="10" stroke="none"/>
    <rect x="1.5" y="1.5" width="170.763" height="166.002" rx="8.5" fill="none"/>
  </g>
  <g id="Icon_ionic-ios-folder-open" data-name="Icon ionic-ios-folder-open" transform="translate(40.502 44.738)">
    <g id="Path_5525" data-name="Path 5525" transform="translate(2.122 -1.5)" fill="#0d2152">
      <path d="M 85.52561950683594 25.88141822814941 L 84.02561950683594 25.88141822814941 L 4.499998569488525 25.88141822814941 L 2.999998569488525 25.88141822814941 L 2.999998569488525 24.38141822814941 L 2.999998569488525 9.263251304626465 C 2.999998569488525 7.568006992340088 3.696520805358887 5.982884883880615 4.961243152618408 4.799862861633301 C 6.202065467834473 3.639196157455444 7.854920864105225 2.999996185302734 9.615321159362793 2.999996185302734 L 29.51744270324707 2.999996185302734 C 31.72777557373047 2.999996185302734 32.91988754272461 3.702262878417969 34.12688827514648 4.835362911224365 L 34.14414215087891 4.851573944091797 L 34.160888671875 4.8683180809021 L 34.20230865478516 4.909740447998047 L 38.86201095581055 9.569440841674805 C 38.88587951660156 9.593306541442871 38.90387725830078 9.609843254089355 38.9166145324707 9.620925903320312 C 38.94367218017578 9.623854637145996 38.99050903320312 9.627129554748535 39.06465530395508 9.627129554748535 L 79.30379486083984 9.627129554748535 C 81.04592895507812 9.627129554748535 82.633544921875 10.26506233215332 83.77417755126953 11.42339611053467 C 84.90361022949219 12.57038497924805 85.52561950683594 14.1567850112915 85.52561950683594 15.89038467407227 L 85.52561950683594 24.38141822814941 L 85.52561950683594 25.88141822814941 Z" stroke="none"/>
      <path d="M 84.02561950683594 24.38142013549805 L 84.02561950683594 15.89039516448975 C 84.02561950683594 13.13598251342773 82.07889556884766 11.12713241577148 79.30379486083984 11.12713241577148 L 39.06465911865234 11.12713241577148 C 38.48478317260742 11.12713241577148 38.17413330078125 11.00288200378418 37.80136108398438 10.63009452819824 L 33.10023498535156 5.928969860076904 C 32.08544540405273 4.976319789886475 31.25705909729004 4.49999475479126 29.51744651794434 4.49999475479126 L 9.615322113037109 4.49999475479126 C 6.757372379302979 4.49999475479126 4.499997138977051 6.63310718536377 4.499997138977051 9.26324462890625 L 4.499997138977051 24.38142013549805 L 84.02561950683594 24.38142013549805 M 87.02561950683594 27.38142013549805 L 1.49999725818634 27.38142013549805 L 1.49999725818634 9.26324462890625 C 1.49999725818634 7.148294925689697 2.365322351455688 5.174132347106934 3.936559677124023 3.704407215118408 C 5.456284523010254 2.282869815826416 7.473034858703613 1.49999475479126 9.615322113037109 1.49999475479126 L 29.51744651794434 1.49999475479126 C 32.21319580078125 1.49999475479126 33.72018432617188 2.396157264709473 35.15353393554688 3.741744756698608 L 35.26298522949219 3.849069595336914 L 39.54104614257812 8.127132415771484 L 79.30379486083984 8.127132415771484 C 83.70596313476562 8.127132415771484 87.02561950683594 11.46460723876953 87.02561950683594 15.89039516448975 L 87.02561950683594 27.38142013549805 Z" stroke="none" fill="#000"/>
    </g>
    <g id="Path_5526" data-name="Path 5526" transform="translate(-2.252 12.461)" fill="#2e86ff">
      <path d="M 85.33411407470703 68.56423950195312 L 12.33205795288086 68.56423950195312 C 10.51676464080811 68.56423950195312 9.021791458129883 68.02011871337891 7.888684749603271 66.94699859619141 C 6.739045143127441 65.85821533203125 5.993098258972168 64.23139953613281 5.671565055847168 62.11174774169922 L 5.667325019836426 62.08378982543945 L 5.664138317108154 62.05568313598633 C 5.480578422546387 60.43574905395508 1.164244890213013 22.33662796020508 0.7943515777587891 18.3912410736084 C 0.6046849489212036 16.3680419921875 1.049604892730713 14.74798774719238 2.116791486740112 13.57608127593994 C 3.223284959793091 12.36100101470947 4.965324878692627 11.71874809265137 7.154604911804199 11.71874809265137 L 8.87352466583252 11.71874809265137 L 88.37845611572266 11.71874809265137 L 90.09736633300781 11.71874809265137 C 92.04807281494141 11.71874809265137 93.67744445800781 12.35928153991699 94.80934143066406 13.57112121582031 C 96.09067535400391 14.9429349899292 96.65322875976562 16.91426849365234 96.48140716552734 19.43034744262695 C 96.19226837158203 23.68449020385742 91.77725982666016 60.47814178466797 91.58683013916016 62.06427383422852 C 91.34588623046875 64.13093566894531 90.68817901611328 65.73995971679688 89.63191223144531 66.84685516357422 C 88.54445648193359 67.98642730712891 87.09845733642578 68.56423950195312 85.33411407470703 68.56423950195312 Z" stroke="none"/>
      <path d="M 7.154609680175781 13.21873474121094 C 4.503753662109375 13.21873474121094 1.915023803710938 14.27494812011719 2.287811279296875 18.25122451782227 C 2.66058349609375 22.22752380371094 7.154609680175781 61.88679504394531 7.154609680175781 61.88679504394531 C 7.713768005371094 65.57315063476562 9.577651977539062 67.06425476074219 12.33205413818359 67.06425476074219 L 85.3341064453125 67.06425476074219 C 87.96426391601562 67.06425476074219 89.68316650390625 65.44888305664062 90.09736633300781 61.88679504394531 C 90.09736633300781 61.88679504394531 94.69492340087891 23.59436798095703 94.98487854003906 19.3281364440918 C 95.27481079101562 15.08263397216797 93.14169311523438 13.21873474121094 90.09736633300781 13.21873474121094 C 89.86955261230469 13.21873474121094 89.20684051513672 13.21873474121094 88.37845611572266 13.21873474121094 L 8.873527526855469 13.21873474121094 C 8.045135498046875 13.21873474121094 7.403121948242188 13.21873474121094 7.154609680175781 13.21873474121094 M 7.154609680175781 10.21873474121094 L 90.09736633300781 10.21873474121094 C 92.47428131103516 10.21873474121094 94.48271179199219 11.02391052246094 95.90552520751953 12.54721069335938 C 96.98932647705078 13.70753479003906 98.22862243652344 15.86132049560547 97.97791290283203 19.53253936767578 C 97.68640899658203 23.82151794433594 93.27269744873047 60.60592651367188 93.07653045654297 62.2398681640625 C 92.79679870605469 64.63648223876953 92.00299072265625 66.53488922119141 90.71709442138672 67.88240814208984 C 89.35501098632812 69.30978393554688 87.49359893798828 70.06425476074219 85.3341064453125 70.06425476074219 L 12.33205413818359 70.06425476074219 C 10.1202392578125 70.06425476074219 8.278251647949219 69.38188171386719 6.85723876953125 68.03609466552734 C 5.459236145019531 66.71211242675781 4.561355590820312 64.7945556640625 4.18853759765625 62.33669281005859 L 4.173683166503906 62.22457885742188 C 3.99005126953125 60.60404968261719 -0.3278732299804688 22.49092483520508 -0.6990890502929688 18.5312385559082 C -0.9864883422851562 15.46576690673828 0.0704498291015625 13.59539794921875 1.007728576660156 12.56613922119141 C 1.982894897460938 11.49526977539062 3.840911865234375 10.21873474121094 7.154609680175781 10.21873474121094 Z" stroke="none" fill="#000"/>
    </g>
  </g>
</svg>
