<svg xmlns="http://www.w3.org/2000/svg" xmlns:xlink="http://www.w3.org/1999/xlink" width="169" height="169" viewBox="0 0 169 169">
  <defs>
    <clipPath id="clip-path">
      <rect id="Rectangle_3219" data-name="Rectangle 3219" width="169" height="169" transform="translate(0 -0.002)" fill="none"/>
    </clipPath>
  </defs>
  <g id="More_Process" data-name="More Process" transform="translate(0.276 0.245)">
    <g id="Group_8255" data-name="Group 8255" transform="translate(-0.277 -0.244)" clip-path="url(#clip-path)">
      <path id="Path_6226" data-name="Path 6226" d="M84.276,2.259A81.994,81.994,0,1,1,2.282,84.253,81.994,81.994,0,0,1,84.276,2.259" transform="translate(0.545 0.941)" fill="#ffe115"/>
      <path id="Path_6227" data-name="Path 6227" d="M84.07,168.094a84.047,84.047,0,1,1,84.047-84.047A84.127,84.127,0,0,1,84.07,168.094m0-163.988a79.941,79.941,0,1,0,79.941,79.941A80.009,80.009,0,0,0,84.07,4.106" transform="translate(0.751 1.147)"/>
      <path id="Path_6228" data-name="Path 6228" d="M166.27,88.507s-36.706,39.7-81.994,39.7-81.993-39.7-81.993-39.7S38.988,48.8,84.275,48.8s81.994,39.7,81.994,39.7" transform="translate(0.545 -3.312)" fill="#fff"/>
      <path id="Path_6229" data-name="Path 6229" d="M84.067,130.057c-23.9,0-45.328-11-59.124-20.2A149.612,149.612,0,0,1,.554,89.7a2.033,2.033,0,0,1,0-2.791,147.461,147.461,0,0,1,24.389-20.16c13.755-9.2,35.228-20.2,59.124-20.2s45.329,11,59.124,20.2A149.615,149.615,0,0,1,167.58,86.9a2.035,2.035,0,0,1,0,2.791,147.459,147.459,0,0,1-24.389,20.16c-13.8,9.2-35.228,20.2-59.124,20.2M4.947,88.3a151.11,151.11,0,0,0,22.377,18.189c13.261,8.869,33.914,19.462,56.742,19.462s43.482-10.593,56.743-19.462A153.446,153.446,0,0,0,163.187,88.3,151.1,151.1,0,0,0,140.81,70.112C127.548,61.243,106.9,50.65,84.067,50.65S40.586,61.243,27.325,70.112A151.1,151.1,0,0,0,4.947,88.3" transform="translate(0.753 -3.106)"/>
      <path id="Path_6230" data-name="Path 6230" d="M89.835,63.083A26.729,26.729,0,1,1,63.106,89.812,26.729,26.729,0,0,1,89.835,63.083" transform="translate(-5.014 -4.617)"/>
      <path id="Path_6231" data-name="Path 6231" d="M89.628,118.387A28.782,28.782,0,1,1,118.41,89.605a28.79,28.79,0,0,1-28.782,28.782m0-53.458A24.676,24.676,0,1,0,114.3,89.605,24.725,24.725,0,0,0,89.628,64.929" transform="translate(-4.807 -4.411)"/>
    </g>
  </g>
</svg>
